<svg xmlns="http://www.w3.org/2000/svg" viewBox="0 0 506.88 506.88"><title>close</title><circle cx="253.44" cy="253.44" r="253.44" fill="#fff"/><path d="M326,166.24L339.63,180a12.26,12.26,0,0,1,0,17.19L196.9,341.58a11.92,11.92,0,0,1-16.86.14l-0.14-.14-13.6-13.76a12.26,12.26,0,0,1,0-17.19L309,166.23a11.92,11.92,0,0,1,16.86-.12Z"/><path d="M339.63,327.83L326,341.59a11.92,11.92,0,0,1-16.86.14l-0.14-.14L166.31,197.18a12.26,12.26,0,0,1,0-17.19l13.6-13.76a11.92,11.92,0,0,1,16.86-.14l0.14,0.14L339.63,310.64A12.26,12.26,0,0,1,339.63,327.83Z"/></svg>