<?xml version="1.0" encoding="utf-8"?>
<!-- Generator: Adobe Illustrator 19.2.1, SVG Export Plug-In . SVG Version: 6.00 Build 0)  -->
<svg version="1.1" id="Layer_2" xmlns="http://www.w3.org/2000/svg" xmlns:xlink="http://www.w3.org/1999/xlink" x="0px" y="0px"
	 viewBox="0 0 141.7 141.7" style="enable-background:new 0 0 141.7 141.7;" xml:space="preserve">
<style type="text/css">
	.st0{fill:#fff;}
</style>
<g>
	<rect x="29.1" y="81.6" class="st0" width="14.6" height="0.9"/>
	<rect x="100.4" y="81.6" class="st0" width="14.6" height="0.9"/>
	<path class="st0" d="M48.7,81.2c0-0.2,0-0.7-0.5-0.9c-0.3-0.2-0.8-0.2-1-0.2h-0.8v3.8h0.8v-1.3l0.9,1.3h1L48,82.3
		C48.5,82.1,48.7,81.7,48.7,81.2z M47.3,81.7L47.3,81.7l0-0.8h0c0.4,0,0.6,0.1,0.6,0.4C47.9,81.5,47.7,81.7,47.3,81.7z"/>
	<polygon class="st0" points="52.2,83.9 54.4,83.9 54.4,83.1 53,83.1 53,82.2 54.4,82.2 54.4,81.4 53,81.4 53,80.8 54.4,80.8 
		54.4,80 52.2,80 	"/>
	<path class="st0" d="M59,81.5l-0.3-0.1c-0.3-0.1-0.3-0.2-0.3-0.3c0-0.3,0.3-0.3,0.4-0.3c0.1,0,0.2,0,0.3,0.1
		c0.1,0.1,0.1,0.1,0.1,0.2l0.1,0.2l0.7-0.4l-0.1-0.1c-0.1-0.2-0.2-0.3-0.3-0.4C59.3,80.1,59,80,58.7,80c-0.7,0-1.2,0.5-1.2,1.1
		c0,0.6,0.5,0.9,0.8,1l0.3,0.1c0.2,0.1,0.4,0.2,0.4,0.5c0,0.2-0.1,0.5-0.5,0.5c-0.2,0-0.3,0-0.3-0.2c-0.1-0.1-0.1-0.2-0.1-0.4l0-0.2
		l-0.8,0.2l0,0.1c0,0.3,0.1,0.5,0.3,0.8c0.2,0.3,0.6,0.4,0.9,0.4c0.7,0,1.3-0.5,1.3-1.3C59.9,81.9,59.2,81.6,59,81.5z"/>
	<rect x="62.8" y="80.1" class="st0" width="0.8" height="3.8"/>
	<path class="st0" d="M68.8,80.4C68.4,80.1,68,80,67.4,80h-0.9v3.8h0.9c0.5,0,0.9-0.1,1.4-0.4c0.5-0.4,0.8-0.9,0.8-1.5
		C69.5,81.6,69.4,80.9,68.8,80.4z M68.3,82.9c-0.3,0.2-0.6,0.2-0.9,0.2h-0.1v-2.3h0.1c0.3,0,0.6,0,0.9,0.2c0.3,0.2,0.4,0.5,0.4,0.9
		C68.7,82.3,68.5,82.7,68.3,82.9z"/>
	<polygon class="st0" points="72.6,83.9 74.9,83.9 74.9,83.1 73.5,83.1 73.5,82.2 74.8,82.2 74.8,81.4 73.5,81.4 73.5,80.8 
		74.9,80.8 74.9,80 72.6,80 	"/>
	<path class="st0" d="M80.3,82.2L80,81.9c0,0-0.1-0.1-0.1-0.1l-2.1-2v4.1h0.8v-2.2l2.6,2.4v-4.1h-0.8V82.2z"/>
	<path class="st0" d="M85.9,80c-0.6,0-1,0.2-1.4,0.5c-0.4,0.4-0.6,0.9-0.6,1.5c0,0.6,0.2,1,0.6,1.4c0.4,0.3,0.8,0.5,1.4,0.5
		c0.5,0,0.9-0.2,1-0.3l0.1,0v-1.1l-0.2,0.2c-0.3,0.2-0.6,0.4-0.9,0.4c-0.7,0-1.1-0.5-1.1-1.2c0-0.7,0.5-1.2,1.1-1.2
		c0.1,0,0.5,0,0.9,0.4l0.2,0.2v-1l-0.1,0C86.6,80.1,86.3,80,85.9,80z"/>
	<polygon class="st0" points="90,83.9 92.2,83.9 92.2,83.1 90.8,83.1 90.8,82.2 92.2,82.2 92.2,81.4 90.8,81.4 90.8,80.8 92.2,80.8 
		92.2,80 90,80 	"/>
	<path class="st0" d="M96.6,81.5l-0.4-0.1C96.1,81.3,96,81.2,96,81c0-0.2,0.2-0.3,0.4-0.3c0.1,0,0.2,0,0.3,0.1
		c0.1,0.1,0.1,0.1,0.1,0.2l0.1,0.2l0.7-0.4l-0.1-0.1c-0.1-0.2-0.2-0.3-0.3-0.4c-0.2-0.2-0.5-0.3-0.8-0.3c-0.7,0-1.2,0.5-1.2,1.1
		c0,0.6,0.5,0.9,0.8,1l0.3,0.1c0.2,0.1,0.4,0.2,0.4,0.5c0,0.2-0.1,0.5-0.5,0.5c-0.2,0-0.3,0-0.3-0.2c-0.1-0.1-0.1-0.2-0.1-0.4l0-0.2
		L95,82.7l0,0.1c0,0.4,0.2,0.6,0.3,0.8c0.2,0.3,0.6,0.4,0.9,0.4c0.8,0,1.3-0.5,1.3-1.3C97.6,81.9,96.9,81.6,96.6,81.5z"/>
</g>
<g>
	<path class="st0" d="M112.4,62.7c-0.6-0.4-1.7-0.7-2.5-0.6c-0.9,0-1.9,0.3-2.5,0.6c-2.1,1.3-2.6,3-2.6,4.7v6.8h1v-6.7
		c0-1.7,0.6-3.2,2.1-4.1c0.5-0.3,1.4-0.5,2-0.5c0.6,0,1.5,0.2,2.1,0.5c1.5,0.9,2.1,2.3,2.1,4.1v6.7h1v-6.8
		C115,65.7,114.4,63.9,112.4,62.7z"/>
	<path class="st0" d="M35,61.9c-3.4,0-6.1,2.8-6.1,6.2c0,3.4,2.7,6.2,6.1,6.2c3.4,0,6.1-2.8,6.1-6.2C41.1,64.6,38.3,61.9,35,61.9z
		 M35,73.4c-2.9,0-5.2-2.3-5.2-5.3c0-3,2.3-5.3,5.2-5.3c2.9,0,5.2,2.3,5.2,5.3C40.1,71,37.9,73.4,35,73.4z"/>
	<path class="st0" d="M52.4,61.9c-2.2,0-4.1,1.2-5.2,2.9v-8.4h-0.9v11.3c0,0.1,0,0.9,0,1.2c0.4,3,3,5.3,6,5.3c3.4,0,6.1-2.8,6.1-6.2
		C58.5,64.6,55.7,61.9,52.4,61.9z M52.4,73.4c-2.9,0-5.1-2.3-5.1-5.3c0-3,2.3-5.3,5.1-5.3c2.9,0,5.2,2.3,5.2,5.3
		C57.5,71,55.3,73.4,52.4,73.4z"/>
	<path class="st0" d="M69.8,61.9c-3.4,0-6.1,2.8-6.1,6.2c0,3.4,2.7,6.2,6.1,6.2c3.4,0,6.1-2.8,6.1-6.2
		C75.9,64.6,73.1,61.9,69.8,61.9z M69.8,73.4c-2.9,0-5.2-2.3-5.2-5.3c0-3,2.3-5.3,5.2-5.3c2.9,0,5.2,2.3,5.2,5.3
		C74.9,71,72.7,73.4,69.8,73.4z"/>
	<rect x="81.1" y="56.4" class="st0" width="1" height="17.9"/>
	<path class="st0" d="M93.3,61.9c-3.4,0-6.1,2.8-6.1,6.2c0,3.4,2.7,6.2,6.1,6.2c3.4,0,6.1-2.8,6.1-6.2
		C99.4,64.6,96.7,61.9,93.3,61.9z M93.3,73.4c-2.9,0-5.2-2.3-5.2-5.3c0-3,2.3-5.3,5.2-5.3c2.9,0,5.2,2.3,5.2,5.3
		C98.5,71,96.2,73.4,93.3,73.4z"/>
</g>
</svg>
