<?xml version="1.0" encoding="UTF-8"?><!DOCTYPE svg PUBLIC "-//W3C//DTD SVG 1.1//EN" "http://www.w3.org/Graphics/SVG/1.1/DTD/svg11.dtd"><svg xmlns="http://www.w3.org/2000/svg"><symbol id="icon-arrow-left" viewBox="0 0 256 256">
    <path d="M179.199 38.399a6.378 6.378 0 0 1-1.875 4.524l-85.076 85.075 85.076 85.075c2.5 2.5 2.5 6.55 0 9.05s-6.55 2.5-9.05 0l-89.601-89.6a6.399 6.399 0 0 1 0-9.051l89.601-89.6a6.398 6.398 0 0 1 10.925 4.527z"/>
</symbol><symbol id="icon-arrow-right" viewBox="0 0 256 256">
    <path d="M76.8 217.6c0-1.637.625-3.274 1.875-4.524L163.75 128 78.675 42.925c-2.5-2.5-2.5-6.55 0-9.05s6.55-2.5 9.05 0l89.601 89.6c2.5 2.5 2.5 6.551 0 9.051l-89.601 89.6A6.398 6.398 0 0 1 76.8 217.6z"/>
</symbol><symbol id="icon-burger" viewBox="0 0 139 139">
    <style>
        .st0{fill:none;stroke:#000;stroke-width:6;stroke-miterlimit:10}
    </style>
    <path class="st0" id="XMLID_6_" d="M26.5 46.3h86"/>
    <path class="st0" id="XMLID_9_" d="M26.5 92.7h86"/>
    <path class="st0" id="XMLID_8_" d="M26.5 69.5h86"/>
</symbol><symbol id="icon-close" viewBox="0 0 506.88 506.88">
    <title>
        close
    </title>
    <circle cx="253.44" cy="253.44" r="253.44"/>
    <path d="M326 166.24L339.63 180a12.26 12.26 0 0 1 0 17.19L196.9 341.58a11.92 11.92 0 0 1-16.86.14l-.14-.14-13.6-13.76a12.26 12.26 0 0 1 0-17.19L309 166.23a11.92 11.92 0 0 1 16.86-.12z"/>
    <path d="M339.63 327.83L326 341.59a11.92 11.92 0 0 1-16.86.14l-.14-.14-142.69-144.41a12.26 12.26 0 0 1 0-17.19l13.6-13.76a11.92 11.92 0 0 1 16.86-.14l.14.14 142.72 144.41a12.26 12.26 0 0 1 0 17.19z"/>
</symbol><symbol id="icon-cross" viewBox="0 0 24 24">
    <path d="M22.245 4.015a.808.808 0 0 1 0 1.139l-6.276 6.27a.81.81 0 0 0 0 1.14l6.273 6.272a.81.81 0 0 1 0 1.14l-2.285 2.277a.814.814 0 0 1-1.142 0l-6.271-6.271a.81.81 0 0 0-1.141 0l-6.276 6.267a.81.81 0 0 1-1.141 0l-2.282-2.28a.81.81 0 0 1 0-1.14l6.278-6.269a.81.81 0 0 0 0-1.14L1.709 5.147a.808.808 0 0 1 0-1.14l2.284-2.278a.813.813 0 0 1 1.142.001L11.405 8a.81.81 0 0 0 1.141.001l6.276-6.267a.812.812 0 0 1 1.141 0l2.282 2.281z"/>
</symbol></svg>