<svg xmlns="http://www.w3.org/2000/svg" viewBox="0 0 86.13 27.73"><title>logo-1</title><rect x="0.23" y="25.17" width="14.56" height="0.85" fill="#9c9064"/><rect x="71.56" y="25.17" width="14.56" height="0.85" fill="#9c9064"/><path d="M19.87,24.85a1.13,1.13,0,0,0-.48-0.95,1.78,1.78,0,0,0-1-.24H17.6v3.83h0.83V26.22l0.89,1.27h1l-1.16-1.58A1.12,1.12,0,0,0,19.87,24.85Zm-1.41.44h0V24.46h0c0.4,0,.57.12,0.57,0.4S18.84,25.29,18.46,25.29Z" fill="#9c9064"/><polygon points="23.32 27.49 25.56 27.49 25.56 26.71 24.15 26.71 24.15 25.81 25.52 25.81 25.52 25.02 24.15 25.02 24.15 24.46 25.56 24.46 25.56 23.66 23.32 23.66 23.32 27.49" fill="#9c9064"/><path d="M30.13,25.11L29.78,25a0.35,0.35,0,0,1-.29-0.31,0.31,0.31,0,0,1,.35-0.28,0.36,0.36,0,0,1,.28.09,0.49,0.49,0,0,1,.13.18l0.06,0.15L31,24.39l-0.06-.12a1.38,1.38,0,0,0-.3-0.4,1.13,1.13,0,0,0-.81-0.28,1.11,1.11,0,0,0-1.18,1.08,1.13,1.13,0,0,0,.82,1l0.34,0.14a0.55,0.55,0,0,1,.43.48,0.42,0.42,0,0,1-.45.45,0.38,0.38,0,0,1-.34-0.16,0.69,0.69,0,0,1-.12-0.37V26.08l-0.82.18v0.13a1.37,1.37,0,0,0,.33.77,1.2,1.2,0,0,0,.95.41,1.24,1.24,0,0,0,1.29-1.28A1.29,1.29,0,0,0,30.13,25.11Z" fill="#9c9064"/><rect x="33.95" y="23.67" width="0.83" height="3.83" fill="#9c9064"/><path d="M39.93,24a2.09,2.09,0,0,0-1.4-.38H37.64v3.83h0.88a2.17,2.17,0,0,0,1.37-.36,1.85,1.85,0,0,0,.78-1.55A1.87,1.87,0,0,0,39.93,24Zm-0.51,2.44a1.33,1.33,0,0,1-.85.23H38.47V24.46h0.09a1.35,1.35,0,0,1,.86.22,1.13,1.13,0,0,1,.41.91A1.12,1.12,0,0,1,39.41,26.48Z" fill="#9c9064"/><polygon points="43.78 27.49 46.03 27.49 46.03 26.71 44.61 26.71 44.61 25.81 45.98 25.81 45.98 25.02 44.61 25.02 44.61 24.46 46.03 24.46 46.03 23.66 43.78 23.66 43.78 27.49" fill="#9c9064"/><path d="M51.41,25.8l-0.3-.28A0.46,0.46,0,0,0,51,25.42l-2.15-2v4.08h0.83V25.34l2.56,2.4V23.67H51.41V25.8Z" fill="#9c9064"/><path d="M57.05,23.6a1.86,1.86,0,0,0-1.38.52,2,2,0,0,0-.61,1.49,1.94,1.94,0,0,0,2,2,2,2,0,0,0,1-.29l0.07,0V26.17l-0.24.23a1.25,1.25,0,0,1-.87.38,1.2,1.2,0,0,1,0-2.39,1.19,1.19,0,0,1,.87.35L58.14,25v-1l-0.06,0A1.74,1.74,0,0,0,57.05,23.6Z" fill="#9c9064"/><polygon points="61.11 27.49 63.35 27.49 63.35 26.71 61.94 26.71 61.94 25.81 63.3 25.81 63.3 25.02 61.94 25.02 61.94 24.46 63.35 24.46 63.35 23.66 61.11 23.66 61.11 27.49" fill="#9c9064"/><path d="M67.77,25.11L67.42,25a0.36,0.36,0,0,1-.29-0.31,0.3,0.3,0,0,1,.36-0.28,0.37,0.37,0,0,1,.28.09,0.45,0.45,0,0,1,.12.17l0.06,0.16,0.69-.4-0.05-.12a1.18,1.18,0,0,0-.3-0.4,1.22,1.22,0,0,0-2,.8,1.13,1.13,0,0,0,.81,1l0.33,0.14a0.55,0.55,0,0,1,.43.48,0.42,0.42,0,0,1-.45.45,0.37,0.37,0,0,1-.34-0.16A0.58,0.58,0,0,1,67,26.26V26.08l-0.83.18v0.13a1.37,1.37,0,0,0,.33.77,1.2,1.2,0,0,0,.94.41,1.25,1.25,0,0,0,1.3-1.28A1.29,1.29,0,0,0,67.77,25.11Z" fill="#9c9064"/><path d="M83.5,6.3a5.33,5.33,0,0,0-5.09,0A5,5,0,0,0,75.83,11v6.83h1V11.14a4.34,4.34,0,0,1,2.13-4.06,4.39,4.39,0,0,1,4.11,0,4.33,4.33,0,0,1,2.13,4.06v6.73h1V11A5,5,0,0,0,83.5,6.3Z" fill="#9c9064"/><path d="M6.11,5.47a6.21,6.21,0,0,0,0,12.41A6.21,6.21,0,0,0,6.11,5.47Zm0,11.5A5.16,5.16,0,0,1,1,11.66a5.16,5.16,0,1,1,10.31,0A5.17,5.17,0,0,1,6.12,17Z" fill="#9c9064"/><path d="M23.51,5.47a6.08,6.08,0,0,0-5.17,2.9V0H17.42V11.32c0,0.12,0,.94,0,1.22a6.11,6.11,0,0,0,12.16-.87A6.15,6.15,0,0,0,23.51,5.47Zm0,11.5a5.16,5.16,0,0,1-5.15-5.31,5.16,5.16,0,1,1,10.31,0A5.17,5.17,0,0,1,23.51,17Z" fill="#9c9064"/><path d="M40.91,5.47A6.21,6.21,0,1,0,47,11.67,6.15,6.15,0,0,0,40.91,5.47Zm0,11.5a5.17,5.17,0,0,1-5.16-5.31,5.16,5.16,0,1,1,10.31,0A5.16,5.16,0,0,1,40.92,17Z" fill="#9c9064"/><rect x="52.21" y="0.02" width="0.96" height="17.91" fill="#9c9064"/><path d="M64.46,5.47a6.21,6.21,0,1,0,6.11,6.2A6.15,6.15,0,0,0,64.46,5.47Zm0,11.5a5.17,5.17,0,0,1-5.15-5.31,5.16,5.16,0,1,1,10.31,0A5.16,5.16,0,0,1,64.46,17Z" fill="#9c9064"/></svg>